<svg width="181" height="72" viewBox="0 0 181 72" fill="none" xmlns="http://www.w3.org/2000/svg">
<g clip-path="url(#clip0_11121_41463)">
<path d="M101.258 18.7247L100.122 15.5902H93.8391L92.703 18.7247H90.7287L95.9357 4.75403H98.0301L103.235 18.7247H101.261H101.258ZM94.4772 13.855H99.4841L96.9718 6.96976L94.4794 13.855H94.4772Z" fill="#3094BF"/>
<path d="M113.367 8.74495H114.683V18.3242C114.683 19.7613 114.185 20.8981 113.207 21.7168C112.228 22.5355 111.052 22.9537 109.676 22.9537C107.342 22.9537 105.767 22.135 104.949 20.5177L106.105 19.8592C106.704 21.0761 107.9 21.6745 109.676 21.6745C111.971 21.6745 113.367 20.3776 113.367 18.322V16.7648C112.449 18.2219 111.112 18.9605 109.338 18.9605C107.922 18.9605 106.706 18.4622 105.687 17.4433C104.691 16.4244 104.191 15.1875 104.191 13.7304C104.191 12.2732 104.689 11.0363 105.687 10.0174C106.706 8.99856 107.922 8.50024 109.338 8.50024C111.112 8.50024 112.449 9.23882 113.367 10.696V8.7405V8.74495ZM109.436 17.6858C110.532 17.6858 111.47 17.3076 112.228 16.549C112.987 15.7703 113.365 14.8316 113.365 13.7348C113.365 12.6381 112.987 11.6993 112.228 10.9407C111.47 10.162 110.534 9.78386 109.436 9.78386C108.338 9.78386 107.402 10.162 106.643 10.9407C105.885 11.6993 105.507 12.6381 105.507 13.7348C105.507 14.8316 105.885 15.7703 106.643 16.549C107.402 17.3076 108.34 17.6858 109.436 17.6858Z" fill="#3094BF"/>
<path d="M125.653 10.0821C126.571 11.121 127.029 12.3579 127.029 13.7749C127.029 13.9151 127.009 14.1331 126.989 14.3934H118.234C118.494 16.4089 120.068 17.6858 122.202 17.6858C123.719 17.6858 124.855 17.0073 125.413 15.9885L126.569 16.667C125.691 18.0841 124.117 18.9628 122.18 18.9628C120.604 18.9628 119.328 18.4645 118.351 17.4856C117.373 16.5068 116.875 15.2499 116.875 13.7327C116.875 12.2155 117.353 10.9986 118.331 9.99974C119.31 9.00088 120.546 8.50256 122.082 8.50256C123.619 8.50256 124.755 9.0209 125.653 10.0798V10.0821ZM118.231 13.1165H125.671C125.531 12.0598 125.133 11.2411 124.454 10.6627C123.776 10.0843 122.978 9.78395 122.08 9.78395C120.006 9.78395 118.489 11.141 118.231 13.1165Z" fill="#3094BF"/>
<path d="M137.699 12.5959V18.7225H136.383V12.5959C136.383 10.8206 135.404 9.7817 133.67 9.7817C131.756 9.7817 130.44 10.9585 130.44 13.4946V18.7225H129.123V8.7428H130.44V10.3C131.178 9.10319 132.294 8.50476 133.79 8.50476C136.202 8.50476 137.699 10.102 137.699 12.5959Z" fill="#3094BF"/>
<path d="M141.149 17.4656C140.153 16.4467 139.653 15.2098 139.653 13.7327C139.653 12.2555 140.151 11.0186 141.149 10.0198C142.148 9.00088 143.404 8.50256 144.9 8.50256C146.874 8.50256 148.551 9.52145 149.269 11.1165L148.193 11.735C147.655 10.5381 146.399 9.7795 144.902 9.7795C143.806 9.7795 142.868 10.1577 142.11 10.9363C141.352 11.6949 140.974 12.6337 140.974 13.7305C140.974 14.8272 141.352 15.766 142.11 16.5446C142.868 17.3032 143.806 17.6814 144.902 17.6814C146.399 17.6814 147.615 16.9228 148.273 15.7259L149.369 16.3644C148.551 17.9617 146.837 18.9583 144.9 18.9583C143.404 18.9583 142.148 18.46 141.149 17.4612V17.4656Z" fill="#3094BF"/>
<path d="M151.241 6.34904C150.863 5.97085 150.863 5.3702 151.241 4.99201C151.619 4.61383 152.219 4.61383 152.597 4.99201C152.975 5.3702 152.975 5.97085 152.597 6.34904C152.219 6.72723 151.619 6.72723 151.241 6.34904ZM151.261 18.7247V8.74497H152.577V18.7247H151.261Z" fill="#3094BF"/>
<path d="M163.945 8.74502H165.261V18.7247H163.945V16.7693C163.027 18.2264 161.691 18.965 159.916 18.965C158.5 18.965 157.284 18.4667 156.266 17.4478C155.27 16.4289 154.769 15.192 154.769 13.7349C154.769 12.2777 155.267 11.0408 156.266 10.022C157.284 9.00308 158.5 8.50476 159.916 8.50476C161.691 8.50476 163.027 9.24334 163.945 10.7005V8.74502ZM160.016 17.6858C161.113 17.6858 162.051 17.3076 162.809 16.549C163.567 15.7704 163.945 14.8316 163.945 13.7349C163.945 12.6381 163.567 11.6993 162.809 10.9407C162.051 10.1621 161.115 9.78392 160.016 9.78392C158.918 9.78392 157.982 10.1621 157.224 10.9407C156.466 11.6993 156.088 12.6381 156.088 13.7349C156.088 14.8316 156.466 15.7704 157.224 16.549C157.982 17.3076 158.92 17.6858 160.016 17.6858Z" fill="#3094BF"/>
<path d="M101 28.0861V29.8413H96.8718V42.0568H95.0375V29.8413H90.9288V28.0861H101.003H101Z" fill="#3094BF"/>
<path d="M104.051 33.7344C104.669 32.5175 105.707 31.9191 107.204 31.9191V33.196C105.389 33.196 104.051 34.2149 104.051 36.5085V42.0567H102.735V32.077H104.051V33.7344Z" fill="#3094BF"/>
<path d="M108.978 29.6833C108.6 29.3051 108.6 28.7044 108.978 28.3262C109.356 27.9481 109.956 27.9481 110.334 28.3262C110.712 28.7044 110.712 29.3051 110.334 29.6833C109.956 30.0615 109.356 30.0615 108.978 29.6833ZM108.998 42.0567V32.077H110.314V42.0567H108.998Z" fill="#3094BF"/>
<path d="M122.082 33.354C123.1 34.3729 123.598 35.6098 123.598 37.0669C123.598 38.524 123.1 39.7609 122.082 40.7798C121.084 41.7987 119.868 42.297 118.451 42.297C116.677 42.297 115.341 41.5584 114.423 40.1013V42.0568H113.107V28.0861H114.423V34.0325C115.341 32.5754 116.677 31.8368 118.451 31.8368C119.868 31.8368 121.084 32.3351 122.082 33.354ZM118.351 41.0179C119.447 41.0179 120.386 40.6397 121.144 39.8811C121.902 39.1024 122.28 38.1636 122.28 37.0669C122.28 35.9702 121.902 35.0314 121.144 34.2728C120.386 33.4941 119.447 33.116 118.351 33.116C117.255 33.116 116.317 33.4941 115.559 34.2728C114.801 35.0314 114.423 35.9702 114.423 37.0669C114.423 38.1636 114.801 39.1024 115.559 39.8811C116.317 40.6397 117.253 41.0179 118.351 41.0179Z" fill="#3094BF"/>
<path d="M132.812 32.0769H134.128V42.0566H132.812V40.4994C132.074 41.6962 130.958 42.2946 129.461 42.2946C127.049 42.2946 125.553 40.6974 125.553 38.2035V32.0769H126.869V38.2035C126.869 39.9788 127.847 41.0177 129.581 41.0177C131.496 41.0177 132.812 39.8409 132.812 37.3048V32.0769Z" fill="#3094BF"/>
<path d="M142.205 33.3539H139.333V39.4005C139.333 41.1179 140.291 40.9777 142.205 40.8976V42.0545C139.413 42.4727 138.017 41.7141 138.017 39.4005V33.3539H135.922V32.077H138.017V29.681L139.333 29.2828V32.077H142.205V33.3539Z" fill="#3094BF"/>
<path d="M152.377 32.0771H153.693V42.0568H152.377V40.1013C151.459 41.5584 150.123 42.297 148.348 42.297C146.932 42.297 145.716 41.7987 144.698 40.7798C143.702 39.7609 143.201 38.524 143.201 37.0669C143.201 35.6098 143.699 34.3729 144.698 33.354C145.716 32.3351 146.932 31.8368 148.348 31.8368C150.123 31.8368 151.459 32.5754 152.377 34.0325V32.0771ZM148.448 41.0179C149.545 41.0179 150.483 40.6397 151.241 39.8811C151.999 39.1024 152.377 38.1636 152.377 37.0669C152.377 35.9702 151.999 35.0314 151.241 34.2728C150.483 33.4941 149.547 33.116 148.448 33.116C147.35 33.116 146.414 33.4941 145.656 34.2728C144.898 35.0314 144.52 35.9702 144.52 37.0669C144.52 38.1636 144.898 39.1024 145.656 39.8811C146.414 40.6397 147.352 41.0179 148.448 41.0179Z" fill="#3094BF"/>
<path d="M157.802 33.7344C158.42 32.5175 159.459 31.9191 160.955 31.9191V33.196C159.141 33.196 157.802 34.2149 157.802 36.5085V42.0567H156.486V32.077H157.802V33.7344Z" fill="#3094BF"/>
<path d="M162.729 29.6833C162.351 29.3051 162.351 28.7044 162.729 28.3262C163.107 27.9481 163.707 27.9481 164.085 28.3262C164.463 28.7044 164.463 29.3051 164.085 29.6833C163.707 30.0615 163.107 30.0615 162.729 29.6833ZM162.749 42.0567V32.077H164.065V42.0567H162.749Z" fill="#3094BF"/>
<path d="M175.433 32.0771H176.749V42.0568H175.433V40.1013C174.515 41.5584 173.179 42.297 171.404 42.297C169.988 42.297 168.772 41.7987 167.754 40.7798C166.758 39.7609 166.257 38.524 166.257 37.0669C166.257 35.6098 166.755 34.3729 167.754 33.354C168.772 32.3351 169.988 31.8368 171.404 31.8368C173.179 31.8368 174.515 32.5754 175.433 34.0325V32.0771ZM171.504 41.0179C172.6 41.0179 173.539 40.6397 174.297 39.8811C175.055 39.1024 175.433 38.1636 175.433 37.0669C175.433 35.9702 175.055 35.0314 174.297 34.2728C173.539 33.4941 172.603 33.116 171.504 33.116C170.406 33.116 169.47 33.4941 168.712 34.2728C167.954 35.0314 167.576 35.9702 167.576 37.0669C167.576 38.1636 167.954 39.1024 168.712 39.8811C169.47 40.6397 170.408 41.0179 171.504 41.0179Z" fill="#3094BF"/>
<path d="M93.3813 61.7313C92.0051 60.3343 91.327 58.6169 91.327 56.5813C91.327 54.5458 92.0051 52.8284 93.3813 51.4313C94.7576 50.0342 96.514 49.3357 98.6261 49.3357C101.179 49.3357 103.453 50.6527 104.649 52.7283L103.033 53.6671C102.235 52.1298 100.54 51.1332 98.6239 51.1332C97.0076 51.1332 95.6913 51.6515 94.6753 52.6904C93.657 53.7293 93.159 55.0263 93.159 56.5813C93.159 58.1363 93.657 59.4155 94.6753 60.4522C95.6936 61.4889 97.0098 62.0094 98.6239 62.0094C100.538 62.0094 102.235 61.0106 103.033 59.4956L104.649 60.4144C104.071 61.451 103.233 62.2897 102.157 62.9082C101.081 63.5266 99.9023 63.827 98.6261 63.827C96.5118 63.827 94.7576 63.1284 93.3813 61.7313Z" fill="#3094BF"/>
<path d="M115.281 53.5871H116.597V63.5668H115.281V61.6113C114.363 63.0685 113.026 63.807 111.252 63.807C109.836 63.807 108.62 63.3087 107.602 62.2898C106.606 61.2709 106.105 60.034 106.105 58.5769C106.105 57.1198 106.603 55.8829 107.602 54.864C108.62 53.8451 109.836 53.3468 111.252 53.3468C113.026 53.3468 114.363 54.0854 115.281 55.5425V53.5871ZM111.352 62.5301C112.448 62.5301 113.387 62.1519 114.145 61.3933C114.903 60.6147 115.281 59.6759 115.281 58.5791C115.281 57.4824 114.903 56.5436 114.145 55.785C113.387 55.0064 112.451 54.6282 111.352 54.6282C110.254 54.6282 109.318 55.0064 108.56 55.785C107.802 56.5436 107.424 57.4824 107.424 58.5791C107.424 59.6759 107.802 60.6147 108.56 61.3933C109.318 62.1519 110.256 62.5301 111.352 62.5301Z" fill="#3094BF"/>
<path d="M127.965 57.44V63.5666H126.649V57.44C126.649 55.6647 125.671 54.6258 123.936 54.6258C122.022 54.6258 120.706 55.8026 120.706 58.3387V63.5666H119.39V53.5869H120.706V55.1442C121.444 53.9473 122.56 53.3489 124.056 53.3489C126.469 53.3489 127.965 54.9462 127.965 57.44Z" fill="#3094BF"/>
<path d="M139.095 53.5871H140.411V63.5668H139.095V61.6113C138.177 63.0685 136.841 63.807 135.066 63.807C133.65 63.807 132.434 63.3087 131.416 62.2898C130.42 61.2709 129.919 60.034 129.919 58.5769C129.919 57.1198 130.417 55.8829 131.416 54.864C132.434 53.8451 133.65 53.3468 135.066 53.3468C136.841 53.3468 138.177 54.0854 139.095 55.5425V53.5871ZM135.166 62.5301C136.263 62.5301 137.201 62.1519 137.959 61.3933C138.717 60.6147 139.095 59.6759 139.095 58.5791C139.095 57.4824 138.717 56.5436 137.959 55.785C137.201 55.0064 136.265 54.6282 135.166 54.6282C134.068 54.6282 133.132 55.0064 132.374 55.785C131.616 56.5436 131.238 57.4824 131.238 58.5791C131.238 59.6759 131.616 60.6147 132.374 61.3933C133.132 62.1519 134.07 62.5301 135.166 62.5301Z" fill="#3094BF"/>
<path d="M144.52 55.2444C145.138 54.0275 146.176 53.4291 147.673 53.4291V54.706C145.858 54.706 144.52 55.7249 144.52 58.0185V63.5667H143.204V53.587H144.52V55.2444Z" fill="#3094BF"/>
<path d="M149.445 51.1933C149.067 50.8151 149.067 50.2144 149.445 49.8363C149.823 49.4581 150.423 49.4581 150.801 49.8363C151.179 50.2144 151.179 50.8151 150.801 51.1933C150.423 51.5715 149.823 51.5715 149.445 51.1933ZM149.465 63.5667V53.587H150.781V63.5667H149.465Z" fill="#3094BF"/>
<path d="M162.151 53.5871H163.467V63.5668H162.151V61.6113C161.233 63.0685 159.896 63.807 158.122 63.807C156.706 63.807 155.49 63.3087 154.472 62.2898C153.475 61.2709 152.975 60.034 152.975 58.5769C152.975 57.1198 153.473 55.8829 154.472 54.864C155.49 53.8451 156.706 53.3468 158.122 53.3468C159.896 53.3468 161.233 54.0854 162.151 55.5425V53.5871ZM158.222 62.5301C159.318 62.5301 160.257 62.1519 161.015 61.3933C161.773 60.6147 162.151 59.6759 162.151 58.5791C162.151 57.4824 161.773 56.5436 161.015 55.785C160.257 55.0064 159.321 54.6282 158.222 54.6282C157.124 54.6282 156.188 55.0064 155.43 55.785C154.672 56.5436 154.294 57.4824 154.294 58.5791C154.294 59.6759 154.672 60.6147 155.43 61.3933C156.188 62.1519 157.126 62.5301 158.222 62.5301Z" fill="#3094BF"/>
<path d="M28.1608 19.09L9.76935 15.5229L8.1705 23.7762L26.5619 27.3433L28.1608 19.09Z" fill="#4EC2FF"/>
<path d="M40.4409 19.7727L29.957 4.23804L22.9939 8.94276L33.4778 24.4774L40.4409 19.7727Z" fill="#4EC2FF"/>
<path d="M48.6457 28.9469L52.2106 10.5447L43.9622 8.94489L40.3973 27.3471L48.6457 28.9469Z" fill="#FFB600"/>
<path d="M47.9616 41.2379L63.4871 30.7478L58.7852 23.7806L43.2597 34.2707L47.9616 41.2379Z" fill="#FFB600"/>
<path d="M38.7936 49.4452L57.185 53.0122L58.7838 44.7589L40.3924 41.1919L38.7936 49.4452Z" fill="#FFB600"/>
<path d="M26.5112 48.7614L36.9951 64.296L43.9581 59.5913L33.4742 44.0567L26.5112 48.7614Z" fill="#D0DCE4"/>
<path d="M18.3104 39.5887L14.7454 57.991L22.9938 59.5908L26.5588 41.1885L18.3104 39.5887Z" fill="#D0DCE4"/>
<path d="M18.9908 27.2979L3.46533 37.788L8.16728 44.7551L23.6928 34.2651L18.9908 27.2979Z" fill="#4EC2FF"/>
<path d="M78.0649 0H76.5175V22.8448H78.0649V0Z" fill="#D0DCE4"/>
<path d="M78.0649 22.8448H76.5175V45.6896H78.0649V22.8448Z" fill="#4EC2FF"/>
<path d="M78.0649 45.6895H76.5175V68.5342H78.0649V45.6895Z" fill="#FFB600"/>
</g>
<defs>
<clipPath id="clip0_11121_41463">
<rect width="173.286" height="68.5343" fill="white" transform="translate(3.4657)"/>
</clipPath>
</defs>
</svg>
